<?xml version="1.0" standalone="no"?>
<!DOCTYPE svg PUBLIC "-//W3C//DTD SVG 20010904//EN"
 "http://www.w3.org/TR/2001/REC-SVG-20010904/DTD/svg10.dtd">
<svg version="1.0" xmlns="http://www.w3.org/2000/svg"
 width="500.000000pt" height="500.000000pt" viewBox="0 0 500.000000 500.000000"
 preserveAspectRatio="xMidYMid meet">
<metadata>
Created by potrace 1.14, written by Peter Selinger 2001-2017
</metadata>
<g transform="translate(0.000000,500.000000) scale(0.100000,-0.100000)"
fill="#000000" stroke="none">
<path d="M2488 4991 c-1 -5 -64 -73 -138 -152 -186 -198 -263 -279 -295 -314
-15 -16 -83 -89 -151 -162 l-125 -132 -77 4 c-42 2 -162 6 -267 9 -229 7 -464
15 -601 21 l-102 4 4 -107 c1 -59 5 -179 9 -267 3 -88 8 -230 10 -315 3 -85 8
-201 10 -257 l4 -101 -93 -89 c-89 -85 -284 -268 -430 -403 -94 -87 -103 -95
-178 -167 l-66 -63 67 -63 c84 -82 171 -162 512 -479 l186 -173 -3 -85 c-1
-47 -5 -170 -8 -275 -6 -177 -9 -280 -21 -577 l-4 -117 107 4 c297 11 433 16
602 21 102 3 219 7 262 9 l76 4 79 -83 c43 -45 110 -116 148 -157 247 -264
321 -343 330 -353 6 -7 45 -48 88 -93 61 -64 80 -79 90 -69 15 16 297 317 492
526 39 41 103 109 143 151 l73 77 82 -4 c172 -6 812 -27 897 -28 l65 -1 -1 80
c-1 44 -4 159 -8 255 -13 392 -19 588 -20 650 l-1 65 54 50 c29 28 70 65 90
84 20 18 95 89 166 156 72 67 159 148 194 181 35 32 80 74 100 93 20 18 64 60
98 92 l61 59 -66 64 c-37 35 -80 76 -97 90 -16 15 -59 55 -95 89 -36 34 -99
93 -140 132 -41 38 -141 132 -222 208 l-147 139 4 81 c2 45 7 163 10 262 10
319 16 498 20 602 l4 102 -92 -4 c-50 -2 -177 -6 -282 -9 -267 -9 -475 -16
-581 -21 l-91 -4 -69 72 c-65 68 -303 321 -424 451 -30 33 -91 98 -135 144
-44 46 -81 88 -83 93 -5 12 -19 12 -24 0z m60 -219 c26 -26 97 -101 157 -167
61 -65 119 -128 130 -140 57 -59 275 -294 301 -323 l29 -33 170 6 c93 4 213 8
265 10 335 12 552 16 547 9 -3 -5 -8 -101 -11 -214 -7 -207 -11 -330 -21 -604
l-6 -150 34 -30 c19 -17 157 -146 307 -286 150 -140 296 -276 324 -302 l51
-48 -45 -42 c-219 -204 -326 -303 -390 -363 -41 -39 -111 -105 -155 -146 -44
-42 -90 -84 -102 -95 -25 -22 -24 18 -8 -444 2 -74 7 -223 11 -330 3 -107 7
-199 7 -205 3 -15 -294 -11 -846 11 l-131 5 -34 -38 c-51 -55 -415 -447 -488
-523 -34 -36 -80 -85 -102 -110 l-41 -44 -33 34 c-18 20 -85 91 -148 159 -63
68 -131 141 -150 161 -47 50 -245 262 -296 317 l-42 45 -141 -6 c-487 -21
-837 -26 -834 -11 1 6 4 100 7 210 4 110 9 259 11 330 3 72 7 195 10 274 l5
143 -42 40 c-24 22 -94 88 -157 147 -63 58 -124 115 -135 126 -12 11 -82 76
-156 145 -73 69 -154 144 -179 168 l-46 43 40 36 c22 20 72 66 110 102 104 98
361 339 425 397 30 29 74 70 98 92 l43 41 -6 158 c-3 87 -8 203 -10 258 -2 55
-7 203 -11 329 l-6 228 218 -6 c121 -4 266 -9 324 -11 58 -3 180 -7 272 -10
l166 -5 21 26 c12 15 61 69 109 119 48 50 143 152 212 225 69 74 156 167 195
208 38 40 80 86 93 103 14 16 27 29 29 29 3 0 26 -22 51 -48z"/>
<path d="M1603 3082 l-143 -3 0 -39 c0 -34 3 -40 23 -41 52 -3 81 -9 86 -18 8
-13 7 -903 -1 -916 -4 -6 -22 -12 -40 -13 -70 -5 -73 -7 -76 -45 l-3 -37 123
0 c68 0 185 -3 260 -7 228 -10 339 26 463 151 116 117 168 254 168 446 0 119
-27 239 -69 302 -13 21 -24 40 -24 44 0 17 -101 98 -154 124 -122 59 -145 61
-613 52z m412 -87 c135 -41 212 -124 254 -275 18 -64 20 -95 17 -210 -3 -83
-10 -152 -19 -180 -54 -162 -140 -249 -276 -279 -49 -11 -237 -9 -248 3 -5 4
-8 218 -9 474 0 416 1 468 15 473 29 12 222 7 266 -6z"/>
<path d="M2972 3070 c-250 -66 -395 -273 -393 -563 1 -260 122 -449 336 -527
84 -31 270 -31 385 -1 173 45 200 54 201 65 0 6 1 95 1 199 0 105 4 188 9 188
5 1 14 3 19 4 6 1 21 3 36 4 24 1 25 4 22 48 l-3 46 -200 0 c-110 -1 -207 -2
-216 -2 -10 -1 -16 -13 -17 -41 -2 -34 0 -40 20 -45 22 -5 98 -12 146 -14 22
-1 22 -2 22 -170 l0 -169 -32 -15 c-58 -26 -102 -37 -167 -41 -195 -10 -308
97 -368 349 -2 11 -6 67 -8 125 -9 237 66 399 215 469 48 23 68 26 160 26 77
0 117 -5 151 -18 l46 -17 12 -73 c21 -121 15 -112 73 -110 28 2 52 4 54 5 1 2
5 60 9 129 l6 127 -68 12 c-37 7 -77 15 -88 17 -11 3 -81 6 -155 8 -110 3
-149 0 -208 -15z"/>
</g>
</svg>
